<svg xmlns="http://www.w3.org/2000/svg" viewBox="0 0 512 512">
  <!-- Background rounded rectangle -->
  <rect x="20" y="20" width="472" height="472" rx="100" fill="#1a1a1a"/>
  
  <!-- Dynamic background shapes -->
  <path d="M0 0 L512 0 L512 512 L0 512 L0 0" fill="#2a2a2a"/>
  <path d="M20 20 Q472 20 472 472 Q20 472 20 20" fill="#ff3850"/>
  
  <!-- Outer border glow -->
  <rect x="25" y="25" width="462" height="462" rx="95" 
        fill="none" stroke="#ff5060" stroke-width="2"/>
  
  <!-- ST Letters with 3D effect -->
  <g transform="translate(256 256) scale(1.2)">
    <!-- S -->
    <path d="M-120 -50 
             C-80 -50 -60 -30 -60 0 
             C-60 30 -80 50 -120 50
             C-160 50 -180 30 -180 0" 
          fill="#ffffff" 
          stroke="#dddddd" 
          stroke-width="8"/>
    
    <!-- T -->
    <path d="M40 -50 L160 -50 L160 -30 L110 -30 L110 50 L90 50 L90 -30 L40 -30 Z" 
          fill="#ffffff" 
          stroke="#dddddd" 
          stroke-width="8"/>
    
    <!-- 3D effect highlights -->
    <path d="M-120 -45 
             C-85 -45 -65 -25 -65 0 
             C-65 25 -85 45 -120 45" 
          fill="none" 
          stroke="#ff3850" 
          stroke-width="4"/>
    
    <path d="M45 -45 L155 -45" 
          fill="none" 
          stroke="#ff3850" 
          stroke-width="4"/>
  </g>
  
  <!-- Shine effect -->
  <path d="M40 40 L472 40 L432 80 L80 80 Z" 
        fill="#ffffff" 
        opacity="0.1"/>
  
  <!-- Bottom shadow -->
  <path d="M80 432 L432 432 L472 472 L40 472 Z" 
        fill="#000000" 
        opacity="0.2"/>
        
  <!-- Dot accent similar to reference -->
  <circle cx="400" cy="400" r="20" fill="#ff3850"/>
  <circle cx="400" cy="400" r="15" fill="#ff5060"/>
</svg>
